{
    "asset" : {
        "generator" : "Khronos glTF Blender I/O v1.1.46",
        "version" : "2.0"
    },
    "scene" : 0,
    "scenes" : [
        {
            "name" : "Scene",
            "nodes" : [
                0,
                1,
                2,
                3,
                4,
                5,
                6,
                8,
                9,
                10,
                11
            ]
        }
    ],
    "nodes" : [
        {
            "name" : "Camera",
            "rotation" : [
                0.5081362128257751,
                0.22343608736991882,
                -0.13842639327049255,
                0.8201902508735657
            ],
            "translation" : [
                5.746212005615234,
                5.343663692474365,
                6.925790786743164
            ]
        },
        {
            "name" : "Light",
            "rotation" : [
                0.16907575726509094,
                0.7558803558349609,
                -0.27217137813568115,
                0.570947527885437
            ],
            "translation" : [
                4.076245307922363,
                5.903861999511719,
                -1.0054539442062378
            ]
        },
        {
            "mesh" : 0,
            "name" : "VigaDeFront",
            "rotation" : [
                0,
                1,
                0,
                -4.371138828673793e-08
            ],
            "scale" : [
                0.042451489716768265,
                0.07529391348361969,
                10.432295799255371
            ],
            "translation" : [
                1.1822630167007446,
                2.3213000297546387,
                -9.493940353393555
            ]
        },
        {
            "mesh" : 1,
            "name" : "TechoDront",
            "rotation" : [
                0.7071067690849304,
                0,
                0,
                0.7071067690849304
            ],
            "scale" : [
                1.6289067268371582,
                2.073887586593628,
                0.7410352826118469
            ],
            "translation" : [
                0,
                2.5863232612609863,
                -10.648626327514648
            ]
        },
        {
            "mesh" : 2,
            "name" : "VigaIzFront",
            "scale" : [
                0.042451489716768265,
                0.07529391348361969,
                10.432295799255371
            ],
            "translation" : [
                -1.1900309324264526,
                2.3213000297546387,
                -9.493940353393555
            ]
        },
        {
            "mesh" : 3,
            "name" : "vigasIntermeFront",
            "rotation" : [
                0,
                0,
                0.7455201148986816,
                0.6664831638336182
            ],
            "scale" : [
                0.07539641112089157,
                0.05247914046049118,
                0.14781597256660461
            ],
            "translation" : [
                -0.1430899202823639,
                2.2329280376434326,
                -8.748174667358398
            ]
        },
        {
            "mesh" : 4,
            "name" : "PisoFront",
            "rotation" : [
                0,
                0,
                -0.7071067690849304,
                0.7071067690849304
            ],
            "scale" : [
                0.03248711675405502,
                1.4830399751663208,
                10.725340843200684
            ],
            "translation" : [
                -0.04720798134803772,
                0.07256930321455002,
                -9.343276977539062
            ]
        },
        {
            "name" : "CableadoFront",
            "rotation" : [
                0,
                0,
                -0.7071068286895752,
                0.7071068286895752
            ],
            "scale" : [
                361.19927978515625,
                10.59375,
                10.59375
            ],
            "translation" : [
                -0.07079315185546875,
                318.3948669433594,
                -1.2342238733253907e-05
            ]
        },
        {
            "children" : [
                7
            ],
            "mesh" : 5,
            "name" : "VigasYLuzFront",
            "rotation" : [
                0.5,
                0.5,
                0.4999999701976776,
                0.5
            ],
            "scale" : [
                0.03199999779462814,
                0.02839037962257862,
                0.03199999779462814
            ],
            "translation" : [
                0,
                2.5486509799957275,
                -19.104751586914062
            ]
        },
        {
            "name" : "Centro",
            "scale" : [
                0.3072175085544586,
                0.30204445123672485,
                0.3057001829147339
            ],
            "translation" : [
                0,
                3.8173446655273438,
                -22.292800903320312
            ]
        },
        {
            "mesh" : 6,
            "name" : "CentroSuelo",
            "scale" : [
                2.2274837493896484,
                1.454848289489746,
                2.2274837493896484
            ],
            "translation" : [
                -0.06036100909113884,
                0.39966025948524475,
                -22.20589828491211
            ]
        },
        {
            "mesh" : 7,
            "name" : "CentroTecho",
            "scale" : [
                0.14661581814289093,
                0.011328989639878273,
                0.14661581814289093
            ],
            "translation" : [
                0,
                3.773163318634033,
                -22.321521759033203
            ]
        }
    ],
    "meshes" : [
        {
            "name" : "Cubo.003",
            "primitives" : [
                {
                    "attributes" : {
                        "POSITION" : 0
                    },
                    "indices" : 1
                }
            ]
        },
        {
            "name" : "Cylinder.001",
            "primitives" : [
                {
                    "attributes" : {
                        "POSITION" : 2
                    },
                    "indices" : 3
                }
            ]
        },
        {
            "name" : "Cubo.008",
            "primitives" : [
                {
                    "attributes" : {
                        "POSITION" : 4
                    },
                    "indices" : 5
                }
            ]
        },
        {
            "name" : "Cubo.038",
            "primitives" : [
                {
                    "attributes" : {
                        "POSITION" : 6
                    },
                    "indices" : 7
                }
            ]
        },
        {
            "name" : "Cubo",
            "primitives" : [
                {
                    "attributes" : {
                        "POSITION" : 8
                    },
                    "indices" : 9
                }
            ]
        },
        {
            "name" : "Torus.015",
            "primitives" : [
                {
                    "attributes" : {
                        "POSITION" : 10
                    },
                    "indices" : 11
                }
            ]
        },
        {
            "name" : "Cylinder.006",
            "primitives" : [
                {
                    "attributes" : {
                        "POSITION" : 12
                    },
                    "indices" : 13
                }
            ]
        },
        {
            "name" : "Cylinder.003",
            "primitives" : [
                {
                    "attributes" : {
                        "POSITION" : 14
                    },
                    "indices" : 15
                }
            ]
        }
    ],
    "accessors" : [
        {
            "bufferView" : 0,
            "componentType" : 5126,
            "count" : 1208,
            "max" : [
                1.9417414665222168,
                1.9809209108352661,
                1.1135096549987793
            ],
            "min" : [
                -12.11575984954834,
                -30.459400177001953,
                -1.0227699279785156
            ],
            "type" : "VEC3"
        },
        {
            "bufferView" : 1,
            "componentType" : 5123,
            "count" : 1812,
            "type" : "SCALAR"
        },
        {
            "bufferView" : 2,
            "componentType" : 5126,
            "count" : 3888,
            "max" : [
                1.0034306049346924,
                5.6583733558654785,
                0.4171507954597473
            ],
            "min" : [
                -1.0073848962783813,
                -4.762816429138184,
                -0.17071756720542908
            ],
            "type" : "VEC3"
        },
        {
            "bufferView" : 3,
            "componentType" : 5123,
            "count" : 3888,
            "type" : "SCALAR"
        },
        {
            "bufferView" : 4,
            "componentType" : 5126,
            "count" : 1240,
            "max" : [
                1.9032073020935059,
                2.1552987098693848,
                1.0215837955474854
            ],
            "min" : [
                -12.394092559814453,
                -30.459400177001953,
                -1.1138358116149902
            ],
            "type" : "VEC3"
        },
        {
            "bufferView" : 5,
            "componentType" : 5123,
            "count" : 1860,
            "type" : "SCALAR"
        },
        {
            "bufferView" : 6,
            "componentType" : 5126,
            "count" : 15284,
            "max" : [
                6.0968017578125,
                29.447769165039062,
                65.95465087890625
            ],
            "min" : [
                -3.2887332439422607,
                -34.416568756103516,
                -79.6407699584961
            ],
            "type" : "VEC3"
        },
        {
            "bufferView" : 7,
            "componentType" : 5123,
            "count" : 89544,
            "type" : "SCALAR"
        },
        {
            "bufferView" : 8,
            "componentType" : 5126,
            "count" : 206,
            "max" : [
                1.4441325664520264,
                1.0384535789489746,
                1
            ],
            "min" : [
                -2.3231887817382812,
                -0.9999998211860657,
                -1.0573852062225342
            ],
            "type" : "VEC3"
        },
        {
            "bufferView" : 9,
            "componentType" : 5123,
            "count" : 324,
            "type" : "SCALAR"
        },
        {
            "bufferView" : 10,
            "componentType" : 5126,
            "count" : 697488,
            "max" : [
                2.6280839443206787,
                706.9749755859375,
                25.833391189575195
            ],
            "min" : [
                -2.282580852508545,
                -47.0498046875,
                -25.491294860839844
            ],
            "type" : "VEC3"
        },
        {
            "bufferView" : 11,
            "componentType" : 5125,
            "count" : 4053852,
            "type" : "SCALAR"
        },
        {
            "bufferView" : 12,
            "componentType" : 5126,
            "count" : 1216,
            "max" : [
                1.027098298072815,
                1.7890024185180664,
                0.9633474349975586
            ],
            "min" : [
                -0.9729017019271851,
                -0.21790948510169983,
                -1.0390138626098633
            ],
            "type" : "VEC3"
        },
        {
            "bufferView" : 13,
            "componentType" : 5123,
            "count" : 2124,
            "type" : "SCALAR"
        },
        {
            "bufferView" : 14,
            "componentType" : 5126,
            "count" : 4997,
            "max" : [
                14.470863342285156,
                7.054324150085449,
                14.66689682006836
            ],
            "min" : [
                -14.47085952758789,
                -67.94728088378906,
                -14.274819374084473
            ],
            "type" : "VEC3"
        },
        {
            "bufferView" : 15,
            "componentType" : 5123,
            "count" : 10344,
            "type" : "SCALAR"
        }
    ],
    "bufferViews" : [
        {
            "buffer" : 0,
            "byteLength" : 14496,
            "byteOffset" : 0
        },
        {
            "buffer" : 0,
            "byteLength" : 3624,
            "byteOffset" : 14496
        },
        {
            "buffer" : 0,
            "byteLength" : 46656,
            "byteOffset" : 18120
        },
        {
            "buffer" : 0,
            "byteLength" : 7776,
            "byteOffset" : 64776
        },
        {
            "buffer" : 0,
            "byteLength" : 14880,
            "byteOffset" : 72552
        },
        {
            "buffer" : 0,
            "byteLength" : 3720,
            "byteOffset" : 87432
        },
        {
            "buffer" : 0,
            "byteLength" : 183408,
            "byteOffset" : 91152
        },
        {
            "buffer" : 0,
            "byteLength" : 179088,
            "byteOffset" : 274560
        },
        {
            "buffer" : 0,
            "byteLength" : 2472,
            "byteOffset" : 453648
        },
        {
            "buffer" : 0,
            "byteLength" : 648,
            "byteOffset" : 456120
        },
        {
            "buffer" : 0,
            "byteLength" : 8369856,
            "byteOffset" : 456768
        },
        {
            "buffer" : 0,
            "byteLength" : 16215408,
            "byteOffset" : 8826624
        },
        {
            "buffer" : 0,
            "byteLength" : 14592,
            "byteOffset" : 25042032
        },
        {
            "buffer" : 0,
            "byteLength" : 4248,
            "byteOffset" : 25056624
        },
        {
            "buffer" : 0,
            "byteLength" : 59964,
            "byteOffset" : 25060872
        },
        {
            "buffer" : 0,
            "byteLength" : 20688,
            "byteOffset" : 25120836
        }
    ],
    "buffers" : [
        {
            "byteLength" : 25141524,
            "uri" : "proyect.bin"
        }
    ]
}
